<svg xmlns="http://www.w3.org/2000/svg" xmlns:xlink="http://www.w3.org/1999/xlink" viewBox="0 0 156.87 179.47"><defs><style>.cls-1{fill:#939598;}.cls-2{fill:#f1f2f2;}.cls-3{fill:url(#linear-gradient);}.cls-4{fill:url(#linear-gradient-2);}.cls-5{fill:url(#linear-gradient-3);}</style><linearGradient id="linear-gradient" x1="74.09" y1="72.96" x2="156.87" y2="72.96" gradientUnits="userSpaceOnUse"><stop offset="0" stop-color="#414042"/><stop offset="0.43" stop-color="#434244"/><stop offset="0.58" stop-color="#49494b"/><stop offset="0.69" stop-color="#555456"/><stop offset="0.78" stop-color="#656567"/><stop offset="0.86" stop-color="#7b7b7d"/><stop offset="0.93" stop-color="#969799"/><stop offset="0.99" stop-color="#b4b6b8"/><stop offset="1" stop-color="#bcbec0"/></linearGradient><linearGradient id="linear-gradient-2" y1="149.02" x2="151.32" y2="149.02" gradientUnits="userSpaceOnUse"><stop offset="0" stop-color="#bcbec0"/><stop offset="0.43" stop-color="#babcbe"/><stop offset="0.58" stop-color="#b4b5b7"/><stop offset="0.69" stop-color="#a8aaac"/><stop offset="0.78" stop-color="#98999b"/><stop offset="0.86" stop-color="#828385"/><stop offset="0.93" stop-color="#676769"/><stop offset="0.99" stop-color="#49484a"/><stop offset="1" stop-color="#414042"/></linearGradient><linearGradient id="linear-gradient-3" x1="62.66" y1="14.23" x2="-10.59" y2="118.6" xlink:href="#linear-gradient-2"/></defs><title>Asset 1</title><g id="Layer_2" data-name="Layer 2"><g id="Layer_1-2" data-name="Layer 1"><path class="cls-1" d="M45.63,84.43V78.17a31.19,31.19,0,0,0,5,1.53,24.74,24.74,0,0,0,5.21.58,14.58,14.58,0,0,0,5.55-.74,3,3,0,0,0,1.61-3,3.68,3.68,0,0,0-.74-2.42,5.83,5.83,0,0,0-2.42-1.55q-1.69-.66-5.26-1.66-5.31-1.47-7.47-3.68A8.36,8.36,0,0,1,45,61.08a8.42,8.42,0,0,1,3.42-7.21q3.42-2.53,9.94-2.53a38.58,38.58,0,0,1,5.6.39,21.84,21.84,0,0,1,4.34,1V59a25.24,25.24,0,0,0-9-1.63,13.71,13.71,0,0,0-5.34.79,2.89,2.89,0,0,0-1.76,2.89,3.18,3.18,0,0,0,.66,2.1,5.38,5.38,0,0,0,2.21,1.39A45.17,45.17,0,0,0,59.88,66Q65.77,67.6,68,70.1a9.15,9.15,0,0,1,2.26,6.39,8.48,8.48,0,0,1-3.47,7.18q-3.47,2.6-10.26,2.6A27.32,27.32,0,0,1,45.63,84.43Z"/><path class="cls-1" d="M102.3,94.58a21.23,21.23,0,0,1-2.92.21q-4.15,0-6.18-2.21t-2.13-6.52Q78.13,84.32,78.13,69q0-9.15,4.08-13.39T94.6,51.34q8.31,0,12.39,4.24T111.06,69q0,15.94-13.94,17.2A3.71,3.71,0,0,0,98.07,89c.59.51,2.91.76,4.28.76Zm-.71-17.12q2.26-2.76,2.26-8.49,0-6.26-2.21-8.92t-7-2.66q-4.84,0-7,2.66T85.34,69q0,5.73,2.26,8.49t7,2.76Q99.33,80.22,101.59,77.46Z"/><path class="cls-2" d="M16.61,102.77h4L23.59,116l3.19-10.66v-2.55h3.34L33.89,116l3-13.24h4l-4.52,19.56H32.52l-3.58-12.51-3.86,12.51H21.16Z"/><path class="cls-2" d="M46.07,102.77h14V106H50.17v5H59v3.16H50.17v5H60.1v3.16h-14Z"/><path class="cls-2" d="M72.09,102.77h4.5L84,122.33H79.77l-1.85-4.71h-7.2l-1.82,4.71H64.62Zm5.22,11.69-3-7.87-3,7.87Z"/><path class="cls-2" d="M89.16,102.77h4.1v16.4h9.63v3.16H89.16Z"/><path class="cls-2" d="M108.11,105.93h-6v-3.16h16.09v3.16h-6v16.4h-4.1Z"/><path class="cls-2" d="M122.71,102.77h4.1V111h8.53v-8.2h4.1v19.56h-4.1v-8.2h-8.53v8.2h-4.1Z"/><path class="cls-3" d="M86.85,8.23l57.59,33.25c3.59,2.07,6.74,7.53,6.74,11.67V125.6a22.29,22.29,0,0,1,.15,2.5,21.83,21.83,0,0,1-9.22,17.83l5.19-3c5.38-3.1,9.59-10.4,9.59-16.6V53.14c0-6.21-4.21-13.5-9.59-16.6L88,2.33A19.46,19.46,0,0,0,78.44,0a22.26,22.26,0,0,0-4.35.43A21.84,21.84,0,0,1,86.85,8.23Z"/><path class="cls-4" d="M9.58,142.93l59.27,34.22a20.92,20.92,0,0,0,19.17,0L138.55,148l3.55-2a21.83,21.83,0,0,0,9.22-17.83,22.29,22.29,0,0,0-.15-2.5v.73c0,4.14-3.15,9.6-6.74,11.67l-19.78,11.42L85.17,172.21a15.3,15.3,0,0,1-13.47,0L14.34,139.1A21.87,21.87,0,0,1,0,118.57v7.76C0,132.54,4.21,139.83,9.58,142.93Z"/><path class="cls-5" d="M14.34,139.1,12.44,138c-3.59-2.07-6.74-7.52-6.74-11.67V53.14c0-4.14,3.15-9.6,6.74-11.67L47.93,21,71.7,7.26a15.3,15.3,0,0,1,13.47,0l1.67,1A21.84,21.84,0,0,0,74.09.43a17.26,17.26,0,0,0-5.24,1.9L49.59,13.45l-40,23.09C4.21,39.64,0,46.94,0,53.14v65.42A21.87,21.87,0,0,0,14.34,139.1Z"/></g></g></svg>